<?xml version="1.0" encoding="utf-8"?>
<!-- Generator: Adobe Illustrator 15.0.0, SVG Export Plug-In . SVG Version: 6.00 Build 0)  -->
<!DOCTYPE svg PUBLIC "-//W3C//DTD SVG 1.1//EN" "http://www.w3.org/Graphics/SVG/1.1/DTD/svg11.dtd">
<svg version="1.1" id="Layer_1" xmlns="http://www.w3.org/2000/svg" xmlns:xlink="http://www.w3.org/1999/xlink" x="0px" y="0px"
	 width="1024px" height="1024px" viewBox="0 0 1024 1024" enable-background="new 0 0 1024 1024" xml:space="preserve">
<g>
	<path fill="#3A1888" d="M328.25,826.073c49.938,49.927,182.867,185.433,182.805,185.573
		c-0.485,0.883,132.055-132.194,184.846-184.953l-184.142-184.13L328.25,826.073z"/>
	<path fill="#03A1C4" d="M511.759,642.563l184.142,184.13c0.271-0.307,0.609-0.652,0.906-0.926l183.961-183.972l-184.12-184.124
		L511.759,642.563z"/>
	<path fill="#05D0DF" d="M880.768,641.796l0.471-0.475c101.764-101.75,101.846-266.662,0.307-368.539L696.648,457.672
		L880.768,641.796z"/>
	<path fill="#761FE8" d="M326.861,457.672L143.384,641.143c0.053,0.062,0.083,0.124,0.148,0.179l184.413,184.446
		c0.105,0.096,0.21,0.189,0.306,0.307l183.509-183.51L326.861,457.672z"/>
	<path fill="#FFAA01" d="M511.759,272.771l184.889,184.9l184.897-184.889c-0.146-0.105-0.2-0.211-0.307-0.315L696.807,88.042
		c-0.043-0.054-0.106-0.104-0.159-0.158L511.759,272.771z"/>
	<path fill="#F1175D" d="M142.605,273.413c-100.856,101.878-100.602,266.179,0.778,367.73l183.478-183.471L142.605,273.413z"/>
	<path fill="#FB3A1B" d="M511.759,272.771L327.492,88.505L143.531,272.466c-0.317,0.315-0.601,0.653-0.927,0.946L326.861,457.67
		L511.759,272.771z"/>
	<path fill="#FBC935" d="M696.648,87.884C594.761-13.814,429.759-13.76,327.946,88.042l-0.452,0.463l184.268,184.266L696.648,87.884
		z"/>
</g>
</svg>
